# xmcd CD database file generated by Grip 3.2.0
# 
# Track frame offsets:
#       160
#       16289
#       36205
#       53911
#       75600
#       93688
#       113831
#       130570
#       146868
#       166603
#       190386
#       207297
#       233013
#       248382
# 
# Disc length: 3477 seconds
# 
# Revision: 3
# Processed by: cddbd v1.5.2PL0 Copyright (c) Steve Scherf et al.
# Submitted via: Grip 3.2.0
# 
DISCID=b10d930e
DTITLE=Jack de Keyzer - 6 String Lover
DYEAR=2002
DGENRE=Blues
TTITLE0=Deal Me In
TTITLE1=Soul Lover
TTITLE2=Pleasure is my Business
TTITLE3=The Answer
TTITLE4=If You Were My Woman (And I was Your Man)
TTITLE5=King Of The Blues
TTITLE6=Rock 'Til We Drop
TTITLE7=Making Love To You
TTITLE8=It's in the Way You Love
TTITLE9=Funk This
TTITLE10=Jump Right to It
TTITLE11=Engine Trouble
TTITLE12=Drivin' Home
TTITLE13=6 String Lover
EXTD=YEAR: 2002 ID3G: 0
EXTT0=
EXTT1=
EXTT2=
EXTT3=
EXTT4=
EXTT5=
EXTT6=
EXTT7=
EXTT8=
EXTT9=
EXTT10=
EXTT11=
EXTT12=
EXTT13=
PLAYORDER=
